<?xml version="1.0" encoding="UTF-8" standalone="no"?>
<!-- Created with Inkscape (http://www.inkscape.org/) -->

<svg
   xmlns:dc="http://purl.org/dc/elements/1.1/"
   xmlns:cc="http://creativecommons.org/ns#"
   xmlns:rdf="http://www.w3.org/1999/02/22-rdf-syntax-ns#"
   xmlns:svg="http://www.w3.org/2000/svg"
   xmlns="http://www.w3.org/2000/svg"
   version="1.1"
   width="499.81882"
   height="235.35025"
   id="svg5358">
  <defs
     id="defs5360" />
  <metadata
     id="metadata5363">
    <rdf:RDF>
      <cc:Work
         rdf:about="">
        <dc:format>image/svg+xml</dc:format>
        <dc:type
           rdf:resource="http://purl.org/dc/dcmitype/StillImage" />
        <dc:title></dc:title>
      </cc:Work>
    </rdf:RDF>
  </metadata>
  <g
     transform="translate(-125.0906,-414.68702)"
     id="layer1">
    <g
       transform="translate(1514.3612,-1379.6593)"
       id="g5260">
      <g
         transform="matrix(0.50461406,0,0,0.50461406,-1364.3658,1660.234)"
         id="g5147"
         style="fill:#333333">
        <g
           transform="translate(497.42841,-257.13837)"
           id="g5149"
           style="font-size:86.89482117px;font-style:normal;font-weight:normal;line-height:100%;letter-spacing:0px;word-spacing:0px;fill:#333333;fill-opacity:1;stroke:none;font-family:Sans">
          <path
             d="m -12.27107,822.11097 -20.026541,0 -4.158053,13.32275 -12.940879,0 20.832694,-61.77679 12.686305,0 20.7478353,61.77679 -12.9408792,0 z m -16.971645,-9.71626 13.959178,0 -6.831087,-21.76614 -0.254575,0 z"
             id="path5151"
             style="font-variant:normal;font-weight:bold;font-stretch:normal;line-height:100%;fill:#333333;font-family:Roboto;-inkscape-font-specification:Roboto Bold" />
          <path
             d="m 22.945091,835.43372 -12.3893,0 0,-66.18942 12.3893,0 z"
             id="path5153"
             style="font-variant:normal;font-weight:bold;font-stretch:normal;line-height:100%;fill:#333333;font-family:Roboto;-inkscape-font-specification:Roboto Bold" />
          <path
             d="m 60.24028,835.43372 c -0.452609,-1.04659 -0.841542,-2.14974 -1.166801,-3.30947 -0.32532,-1.15973 -0.55868,-2.34774 -0.70008,-3.56405 -1.272902,2.2346 -2.955922,4.08734 -5.049065,5.55821 -2.093192,1.47088 -4.582364,2.20632 -7.467523,2.20632 -4.808646,0 -8.514118,-1.23752 -11.116428,-3.71255 -2.602322,-2.47503 -3.90348,-5.84814 -3.903478,-10.11934 -2e-6,-4.49747 1.732518,-7.98373 5.197566,-10.45878 3.465033,-2.47501 8.521164,-3.71252 15.168408,-3.71255 l 6.958374,0 0,-3.6489 c -3e-5,-2.20628 -0.579894,-3.91759 -1.739594,-5.13392 -1.159755,-1.21627 -2.885204,-1.82442 -5.176351,-1.82445 -2.008332,3e-5 -3.556993,0.48797 -4.645988,1.4638 -1.089031,0.9759 -1.633537,2.31242 -1.633521,4.00955 l -11.92258,0 -0.08486,-0.25457 c -0.198007,-3.87516 1.492084,-7.21998 5.070278,-10.03449 3.578176,-2.81442 8.252445,-4.22165 14.022822,-4.2217 5.515755,5e-5 9.977879,1.38607 13.386385,4.15806 3.408431,2.77207 5.112666,6.74626 5.112708,11.92258 l 0,18.96581 c -4.2e-5,2.14975 0.162602,4.1722 0.487934,6.06736 0.325247,1.89517 0.841468,3.7762 1.548663,5.64308 z m -11.328573,-8.27368 c 2.149719,10e-6 4.07317,-0.53743 5.770359,-1.61231 1.697136,-1.07486 2.856864,-2.31944 3.479187,-3.73376 l 0,-6.49165 -6.958374,0 c -2.630625,2e-5 -4.61772,0.6506 -5.961291,1.95174 -1.343604,1.30117 -2.015397,2.89933 -2.015382,4.79449 -1.5e-5,1.55574 0.502062,2.79326 1.506233,3.71254 1.004138,0.91931 2.397226,1.37896 4.179268,1.37895 z"
             id="path5155"
             style="font-variant:normal;font-weight:bold;font-stretch:normal;line-height:100%;fill:#333333;font-family:Roboto;-inkscape-font-specification:Roboto Bold" />
          <path
             d="m 91.171107,789.52542 0.551578,6.57651 c 1.52743,-2.3477 3.408452,-4.17215 5.643072,-5.47336 2.234575,-1.30111 4.737893,-1.95169 7.509953,-1.95174 4.63888,5e-5 8.2595,1.49214 10.86185,4.47628 2.60228,2.98422 3.90344,7.70091 3.90348,14.1501 l 0,28.13051 -12.43173,0 0,-28.08808 c -3e-5,-3.28115 -0.57282,-5.60768 -1.71838,-6.97959 -1.14561,-1.37183 -2.86399,-2.05777 -5.15514,-2.05781 -1.838614,4e-5 -3.45799,0.34654 -4.858129,1.03952 -1.400179,0.69304 -2.552836,1.64769 -3.457972,2.86396 l 0,33.222 -12.389301,0 0,-45.9083 z"
             id="path5157"
             style="font-variant:normal;font-weight:bold;font-stretch:normal;line-height:100%;fill:#333333;font-family:Roboto;-inkscape-font-specification:Roboto Bold" />
          <path
             d="m -23.429926,905.56904 0.763724,3.39433 0.254574,0 0.721295,-3.26704 13.4500287,-45.14458 13.0681664,0 -21.0024101,61.77679 -12.728734,0 -20.959981,-61.77679 13.068166,0 z"
             id="path5159"
             style="font-variant:normal;font-weight:bold;font-stretch:normal;line-height:100%;fill:#333333;font-family:Roboto;-inkscape-font-specification:Roboto Bold" />
          <path
             d="m 36.989127,922.32854 c -0.452608,-1.04659 -0.841541,-2.14974 -1.1668,-3.30947 -0.32532,-1.15973 -0.55868,-2.34774 -0.70008,-3.56405 -1.272902,2.23461 -2.955922,4.08734 -5.049065,5.55821 -2.093192,1.47088 -4.582364,2.20632 -7.467523,2.20632 -4.808646,0 -8.514118,-1.23752 -11.116428,-3.71255 -2.6023224,-2.47503 -3.9034805,-5.84814 -3.9034781,-10.11934 -2.4e-6,-4.49747 1.7325179,-7.98373 5.1975661,-10.45878 3.465033,-2.475 8.521164,-3.71252 15.168408,-3.71255 l 6.958374,0 0,-3.6489 c -3e-5,-2.20628 -0.579894,-3.91759 -1.739594,-5.13392 -1.159756,-1.21627 -2.885204,-1.82442 -5.176351,-1.82445 -2.008332,3e-5 -3.556993,0.48797 -4.645988,1.4638 -1.089031,0.97591 -1.633537,2.31242 -1.633521,4.00955 l -11.9225803,0 -0.084858,-0.25457 c -0.1980068,-3.87516 1.4920843,-7.21998 5.0702783,-10.03449 3.578176,-2.81442 8.252445,-4.22165 14.022822,-4.22169 5.515755,4e-5 9.977879,1.38606 13.386385,4.15805 3.408431,2.77207 5.112666,6.74626 5.112708,11.92258 l 0,18.96581 c -4.2e-5,2.14975 0.162602,4.17221 0.487934,6.06737 0.325247,1.89517 0.841468,3.77619 1.548663,5.64307 z m -11.328572,-8.27368 c 2.149719,1e-5 4.07317,-0.53743 5.770359,-1.61231 1.697136,-1.07486 2.856864,-2.31944 3.479187,-3.73376 l 0,-6.49165 -6.958374,0 c -2.630625,2e-5 -4.61772,0.6506 -5.961291,1.95174 -1.343604,1.30117 -2.015397,2.89934 -2.015382,4.79449 -1.5e-5,1.55574 0.502062,2.79326 1.506233,3.71254 1.004138,0.91931 2.397226,1.37896 4.179268,1.37895 z"
             id="path5161"
             style="font-variant:normal;font-weight:bold;font-stretch:normal;line-height:100%;fill:#333333;font-family:Roboto;-inkscape-font-specification:Roboto Bold" />
          <path
             d="m 81.412412,909.5998 c -2.9e-5,-1.35771 -0.65768,-2.52451 -1.972954,-3.5004 -1.315328,-0.97585 -3.755,-1.8315 -7.319021,-2.56696 -5.374369,-1.07485 -9.454632,-2.7013 -12.240799,-4.87935 -2.786184,-2.178 -4.179272,-5.13389 -4.179268,-8.86768 -4e-6,-3.93173 1.668873,-7.28363 5.006636,-10.0557 3.337744,-2.77199 7.778653,-4.15801 13.322741,-4.15805 5.798617,4e-5 10.4446,1.38606 13.937963,4.15805 3.493291,2.77207 5.169239,6.22297 5.02785,10.3527 l -0.08486,0.25458 -11.965009,0 c -2.9e-5,-1.83856 -0.594036,-3.33772 -1.782023,-4.49749 -1.188041,-1.15969 -2.899347,-1.73955 -5.133922,-1.73959 -1.980046,4e-5 -3.549921,0.49504 -4.709632,1.48502 -1.159745,0.99004 -1.739609,2.20634 -1.739593,3.6489 -1.6e-5,1.41434 0.601062,2.56699 1.803237,3.45797 1.202139,0.89104 3.641811,1.69012 7.319022,2.39725 5.628898,1.13147 9.822304,2.79327 12.580231,4.98542 2.757852,2.19219 4.136797,5.21172 4.136839,9.05861 -4.2e-5,4.12978 -1.76792,7.50996 -5.303639,10.14056 -3.535792,2.63061 -8.20299,3.94591 -14.001607,3.94591 -6.109808,0 -10.939651,-1.54866 -14.489542,-4.64599 -3.549906,-3.09732 -5.239998,-6.626 -5.070279,-10.58606 l 0.08486,-0.25458 11.328572,0 c 0.08484,2.4609 0.890997,4.24292 2.41846,5.34607 1.52743,1.10317 3.521596,1.65474 5.982505,1.65474 2.291147,0 4.03781,-0.45964 5.239995,-1.37895 1.202129,-0.91929 1.803208,-2.17095 1.803237,-3.75498 z"
             id="path5163"
             style="font-variant:normal;font-weight:bold;font-stretch:normal;line-height:100%;fill:#333333;font-family:Roboto;-inkscape-font-specification:Roboto Bold" />
          <path
             d="m 120.57447,913.71543 c 2.14972,10e-6 3.86102,-0.6435 5.13392,-1.93053 1.27285,-1.287 1.90928,-3.00538 1.90931,-5.15513 l 11.28615,0 0.0848,0.25457 c 0.11311,4.63893 -1.61234,8.52119 -5.17635,11.64679 -3.56408,3.12561 -7.9767,4.68842 -13.23788,4.68842 -6.78867,0 -12.03574,-2.17096 -15.7412,-6.51287 -3.70548,-4.3419 -5.558217,-9.89304 -5.558214,-16.65343 l 0,-1.27287 c -3e-6,-6.73206 1.845664,-12.28319 5.537004,-16.65343 3.69132,-4.37015 8.91716,-6.55525 15.67755,-6.55529 5.60062,4e-5 10.11224,1.61235 13.53489,4.83691 3.42257,3.22466 5.07731,7.46756 4.9642,12.72874 l -0.0848,0.25457 -11.28615,0 c -3e-5,-2.376 -0.62939,-4.34895 -1.88809,-5.91886 -1.25876,-1.56984 -3.00542,-2.35478 -5.24,-2.35481 -3.19635,3e-5 -5.4663,1.27998 -6.80987,3.83983 -1.3436,2.55992 -2.0154,5.83403 -2.01538,9.82234 l 0,1.27287 c -2e-5,4.07322 0.67178,7.36854 2.01538,9.88599 1.34357,2.51747 3.64181,3.7762 6.89473,3.77619 z"
             id="path5165"
             style="font-variant:normal;font-weight:bold;font-stretch:normal;line-height:100%;fill:#333333;font-family:Roboto;-inkscape-font-specification:Roboto Bold" />
          <path
             d="m 144.29235,898.9501 c -1e-5,-6.8452 1.9093,-12.45291 5.72793,-16.82315 3.8186,-4.37015 9.1081,-6.55525 15.86848,-6.55529 6.78863,4e-5 12.10641,2.17807 15.95335,6.53408 3.84686,4.35609 5.77031,9.97087 5.77036,16.84436 l 0,0.89101 c -5e-5,6.90182 -1.91643,12.52367 -5.74914,16.86557 -3.8328,4.34191 -9.12937,6.51287 -15.88971,6.51287 -6.78867,0 -12.09938,-2.17096 -15.93213,-6.51287 -3.83277,-4.3419 -5.74915,-9.96375 -5.74914,-16.86557 z m 12.34687,0.89101 c -2e-5,4.18636 0.73542,7.54532 2.20631,10.07691 1.47086,2.53162 3.84689,3.79742 7.12809,3.79741 3.1963,10e-6 5.53697,-1.27287 7.02202,-3.81862 1.48499,-2.54573 2.2275,-5.89763 2.22753,-10.0557 l 0,-0.89101 c -3e-5,-4.07317 -0.74961,-7.39678 -2.24874,-9.97084 -1.4992,-2.574 -3.86108,-3.86102 -7.08567,-3.86105 -3.19634,3e-5 -5.53701,1.29412 -7.02201,3.88226 -1.48504,2.58821 -2.22755,5.90475 -2.22753,9.94963 z"
             id="path5167"
             style="font-variant:normal;font-weight:bold;font-stretch:normal;line-height:100%;fill:#333333;font-family:Roboto;-inkscape-font-specification:Roboto Bold" />
          <path
             d="m 206.57829,876.42024 0.55158,6.57651 c 1.52743,-2.3477 3.40846,-4.17215 5.64308,-5.47336 2.23457,-1.30111 4.73789,-1.95169 7.50995,-1.95173 4.63888,4e-5 8.25949,1.49213 10.86185,4.47627 2.60228,2.98422 3.90343,7.70092 3.90348,14.15011 l 0,28.1305 -12.43173,0 0,-28.08808 c -3e-5,-3.28115 -0.57283,-5.60768 -1.71838,-6.97958 -1.14562,-1.37184 -2.86399,-2.05778 -5.15514,-2.05782 -1.83862,4e-5 -3.45799,0.34655 -4.85813,1.03952 -1.40018,0.69304 -2.55284,1.6477 -3.45797,2.86396 l 0,33.222 -12.3893,0 0,-45.9083 z"
             id="path5169"
             style="font-variant:normal;font-weight:bold;font-stretch:normal;line-height:100%;fill:#333333;font-family:Roboto;-inkscape-font-specification:Roboto Bold" />
          <path
             d="m 263.47572,913.71543 c 2.14971,10e-6 3.86102,-0.6435 5.13392,-1.93053 1.27284,-1.287 1.90928,-3.00538 1.90931,-5.15513 l 11.28614,0 0.0849,0.25457 c 0.1131,4.63893 -1.61235,8.52119 -5.17635,11.64679 -3.56408,3.12561 -7.9767,4.68842 -13.23788,4.68842 -6.78868,0 -12.03574,-2.17096 -15.74121,-6.51287 -3.70548,-4.3419 -5.55821,-9.89304 -5.55821,-16.65343 l 0,-1.27287 c 0,-6.73206 1.84566,-12.28319 5.537,-16.65343 3.69132,-4.37015 8.91717,-6.55525 15.67756,-6.55529 5.60061,4e-5 10.11223,1.61235 13.53488,4.83691 3.42258,3.22466 5.07731,7.46756 4.96421,12.72874 l -0.0849,0.25457 -11.28614,0 c -3e-5,-2.376 -0.6294,-4.34895 -1.8881,-5.91886 -1.25876,-1.56984 -3.00542,-2.35478 -5.23999,-2.35481 -3.19635,3e-5 -5.46631,1.27998 -6.80988,3.83983 -1.3436,2.55992 -2.01539,5.83403 -2.01538,9.82234 l 0,1.27287 c -1e-5,4.07322 0.67178,7.36854 2.01538,9.88599 1.34357,2.51747 3.64182,3.7762 6.89474,3.77619 z"
             id="path5171"
             style="font-variant:normal;font-weight:bold;font-stretch:normal;line-height:100%;fill:#333333;font-family:Roboto;-inkscape-font-specification:Roboto Bold" />
          <path
             d="m 309.00216,923.21955 c -6.84525,0 -12.19132,-2.10024 -16.03821,-6.30072 -3.84691,-4.20048 -5.77036,-9.61018 -5.77036,-16.22914 l 0,-1.69716 c 0,-6.87349 1.86688,-12.50241 5.60064,-16.88679 3.73375,-4.3843 8.86767,-6.56232 15.40177,-6.53408 6.16634,4e-5 10.89718,1.88814 14.19254,5.66428 3.29529,3.77623 4.94295,8.86065 4.94299,15.25327 l 0,6.40679 -27.36678,0 -0.12728,0.25458 c 0.19798,3.13977 1.15264,5.68551 2.86396,7.63724 1.71129,1.95175 4.24996,2.92762 7.61603,2.92761 2.772,10e-6 5.12682,-0.28285 7.06445,-0.84858 1.93756,-0.56572 3.93879,-1.42844 6.00371,-2.58818 l 3.3519,7.63724 c -1.83863,1.49916 -4.3278,2.75789 -7.46752,3.77619 -3.13979,1.0183 -6.5624,1.52745 -10.26784,1.52745 z M 308.196,885.11821 c -2.48919,3e-5 -4.40557,0.85569 -5.74914,2.56696 -1.34361,1.71134 -2.15683,3.98129 -2.43968,6.80987 l 0.0849,0.21215 15.10477,0 0,-0.93345 c -3e-5,-2.68714 -0.55161,-4.80152 -1.65474,-6.34315 -1.10318,-1.54155 -2.88521,-2.31235 -5.34607,-2.31238 z"
             id="path5173"
             style="font-variant:normal;font-weight:bold;font-stretch:normal;line-height:100%;fill:#333333;font-family:Roboto;-inkscape-font-specification:Roboto Bold" />
          <path
             d="m 347.61265,922.32854 -12.3893,0 0,-66.18942 12.3893,0 z"
             id="path5175"
             style="font-variant:normal;font-weight:bold;font-stretch:normal;line-height:100%;fill:#333333;font-family:Roboto;-inkscape-font-specification:Roboto Bold" />
          <path
             d="m 355.92876,898.9501 c 0,-6.8452 1.90931,-12.45291 5.72793,-16.82315 3.81861,-4.37015 9.1081,-6.55525 15.86849,-6.55529 6.78863,4e-5 12.1064,2.17807 15.95334,6.53408 3.84687,4.35609 5.77032,9.97087 5.77036,16.84436 l 0,0.89101 c -4e-5,6.90182 -1.91642,12.52367 -5.74914,16.86557 -3.8328,4.34191 -9.12936,6.51287 -15.8897,6.51287 -6.78868,0 -12.09938,-2.17096 -15.93213,-6.51287 -3.83277,-4.3419 -5.74915,-9.96375 -5.74915,-16.86557 z m 12.34687,0.89101 c -10e-6,4.18636 0.73542,7.54532 2.20632,10.07691 1.47085,2.53162 3.84688,3.79742 7.12809,3.79741 3.1963,10e-6 5.53697,-1.27287 7.02201,-3.81862 1.48499,-2.54573 2.2275,-5.89763 2.22753,-10.0557 l 0,-0.89101 c -3e-5,-4.07317 -0.74961,-7.39678 -2.24874,-9.97084 -1.49919,-2.574 -3.86108,-3.86102 -7.08566,-3.86105 -3.19635,3e-5 -5.53702,1.29412 -7.02202,3.88226 -1.48503,2.58821 -2.22754,5.90475 -2.22753,9.94963 z"
             id="path5177"
             style="font-variant:normal;font-weight:bold;font-stretch:normal;line-height:100%;fill:#333333;font-family:Roboto;-inkscape-font-specification:Roboto Bold" />
          <path
             d="m 431.70717,909.5998 c -3e-5,-1.35771 -0.65768,-2.52451 -1.97296,-3.5004 -1.31533,-0.97585 -3.755,-1.8315 -7.31902,-2.56696 -5.37437,-1.07485 -9.45463,-2.7013 -12.2408,-4.87935 -2.78618,-2.178 -4.17927,-5.13389 -4.17927,-8.86768 0,-3.93173 1.66888,-7.28363 5.00664,-10.0557 3.33774,-2.77199 7.77865,-4.15801 13.32274,-4.15805 5.79862,4e-5 10.4446,1.38606 13.93796,4.15805 3.49329,2.77207 5.16924,6.22297 5.02785,10.3527 l -0.0848,0.25458 -11.96501,0 c -3e-5,-1.83856 -0.59404,-3.33772 -1.78203,-4.49749 -1.18804,-1.15969 -2.89934,-1.73955 -5.13392,-1.73959 -1.98004,4e-5 -3.54992,0.49504 -4.70963,1.48502 -1.15975,0.99004 -1.73961,2.20634 -1.73959,3.6489 -2e-5,1.41434 0.60106,2.56699 1.80323,3.45797 1.20214,0.89104 3.64181,1.69012 7.31902,2.39725 5.6289,1.13147 9.82231,2.79327 12.58024,4.98542 2.75785,2.19219 4.13679,5.21172 4.13683,9.05861 -4e-5,4.12978 -1.76791,7.50996 -5.30363,10.14056 -3.5358,2.63061 -8.20299,3.94591 -14.00161,3.94591 -6.10981,0 -10.93965,-1.54866 -14.48954,-4.64599 -3.54991,-3.09732 -5.24,-6.626 -5.07028,-10.58606 l 0.0849,-0.25458 11.32857,0 c 0.0848,2.4609 0.891,4.24292 2.41846,5.34607 1.52743,1.10317 3.5216,1.65474 5.9825,1.65474 2.29115,0 4.03781,-0.45964 5.24,-1.37895 1.20213,-0.91929 1.80321,-2.17095 1.80324,-3.75498 z"
             id="path5179"
             style="font-variant:normal;font-weight:bold;font-stretch:normal;line-height:100%;fill:#333333;font-family:Roboto;-inkscape-font-specification:Roboto Bold" />
        </g>
      </g>
      <g
         transform="matrix(0.78450079,0,0,0.78450079,-1389.2706,1204.1176)"
         id="g5181">
        <path
           d="m 0,752.36218 0,300.00002 300,0 0,-300.00002 z m 48.31116,44.5446 c 29.10454,0 58.2226,0.026 87.32713,0.0994 l 80.04655,137.33262 c 13.72138,23.85794 27.58082,47.76275 41.50931,71.6691 l -38.75125,0 c -7.72952,0.053 -14.95736,-0.8097 -18.57969,-6.4659 l -5.21788,-8.84674 c -30.94866,-61.45974 -81.65576,-3.5892 -85.13736,-67.89032 l 40.55801,0 c 3.47332,-0.16372 3.94208,-1.69449 2.39449,-4.67594 l -47.37106,-81.26535 c -3.78015,-5.17485 -10.440871,-6.42684 -10.2623,0.31997 l 0,168.80438 -46.51595,0 0,-209.08125 z"
           id="path5183"
           style="fill:#af0000;fill-opacity:1;fill-rule:nonzero;stroke:none" />
      </g>
    </g>
  </g>
</svg>
